<svg width="128" height="128" viewBox="0 0 128 128" xmlns="http://www.w3.org/2000/svg">
  <defs>
    <linearGradient id="g1" x1="0%" y1="0%" x2="100%" y2="100%">
      <stop offset="0%" stop-color="#3B82F6"/>
      <stop offset="100%" stop-color="#8B5CF6"/>
    </linearGradient>
    <linearGradient id="g2" x1="0%" y1="100%" x2="100%" y2="0%">
      <stop offset="0%" stop-color="#22D3EE"/>
      <stop offset="100%" stop-color="#8B5CF6"/>
    </linearGradient>
  </defs>
  <rect x="36" y="18" width="56" height="36" rx="10" fill="url(#g1)"/>
  <text x="64" y="40" font-family="Inter, sans-serif" font-size="18" font-weight="800" fill="white" text-anchor="middle" dominant-baseline="middle">ERP</text>
  <rect x="12" y="72" width="30" height="30" rx="8" fill="#1E293B" stroke="#3B82F6" stroke-width="2"/>
  <rect x="49" y="72" width="30" height="30" rx="8" fill="#1E293B" stroke="#8B5CF6" stroke-width="2"/>
  <rect x="86" y="72" width="30" height="30" rx="8" fill="#1E293B" stroke="#22D3EE" stroke-width="2"/>
  <line x1="50" y1="54" x2="27" y2="72" stroke="#3B82F6" stroke-width="2" stroke-linecap="round" opacity="0.8"/>
  <line x1="64" y1="54" x2="64" y2="72" stroke="#8B5CF6" stroke-width="2" stroke-linecap="round" opacity="0.8"/>
  <line x1="78" y1="54" x2="101" y2="72" stroke="#22D3EE" stroke-width="2" stroke-linecap="round" opacity="0.8"/>
  <circle cx="27" cy="87" r="4" fill="#3B82F6"/>
  <rect x="61" y="83" width="8" height="8" rx="2" fill="#8B5CF6"/>
  <path d="M101 83 L105 87 L101 91 L97 87 Z" fill="#22D3EE"/>
</svg>